<svg width="165" height="258" viewBox="0 0 165 258" fill="none" xmlns="http://www.w3.org/2000/svg">
<g clip-path="url(#clip0_183_824)">
<path d="M106.768 75.4012C109.825 60.3942 100.188 45.74 85.2428 42.6703C70.2978 39.6007 55.7043 49.2778 52.6473 64.2848C50.168 76.4557 56.0389 88.393 66.3182 94.1084L53.1574 117.191L94.839 147.385L98.5717 115.317C98.5717 115.317 91.4314 104.509 90.0343 95.5652C98.3278 92.199 104.841 84.8612 106.768 75.4012Z" fill="#ED9DA0"/>
<path d="M106.767 53.1143L107.232 67.1157L104.329 71.2804" fill="#090814"/>
<path d="M90.5874 122.348L92.2464 114.435C92.2464 114.435 94.0868 102.185 87.1663 95.5345C87.1663 95.5345 101.247 99.4292 100.687 110.888L135.38 127.762L129.158 239.375C129.158 239.375 136.624 246.038 125.841 250.619C125.841 250.619 72.7535 263.53 41.6478 255.2L33.3529 253.118L25.8876 255.2C25.8876 255.2 17.5927 248.953 19.6664 241.041L15.9337 211.055L9.29786 124.846L23.3991 117.35C23.3991 117.35 24.6433 114.018 28.7908 114.018L49.9426 102.357C49.9426 102.357 60.0816 96.7653 66.0026 94.0502C66.3976 93.8691 66.727 94.3933 66.3977 94.6774C63.344 97.3125 61.0069 102.441 73.5829 109.854C73.5829 109.854 79.4927 118.996 78.4042 122.338L90.5874 122.348Z" fill="#D6D6E3"/>
<path d="M116.707 252.494H117.537V240.802L115.417 188.181C120.687 159.661 105.482 122.559 105.327 122.188L105.221 121.931H90.5874V122.764H104.666C106.004 126.101 119.612 161.036 114.593 188.075L114.584 188.121L114.586 188.168L116.708 240.819L116.707 252.494Z" fill="#090814"/>
<path d="M69.8503 196.895H88.3396L117.546 187.316H126.081L135.38 198.126L124.596 207.307L119.619 209.389C119.619 209.389 87.2695 234.377 79.3894 235.627C71.5092 236.876 66.9471 234.377 66.9471 234.377L69.8503 196.895Z" fill="#ED9DA0"/>
<path d="M108.421 161.495C107.047 161.495 105.933 160.377 105.933 158.997C105.933 157.617 107.047 156.498 108.421 156.498C109.796 156.498 110.91 157.617 110.91 158.997C110.91 160.377 109.796 161.495 108.421 161.495Z" fill="#090814"/>
<path d="M110.08 190.648C108.706 190.648 107.592 189.529 107.592 188.149C107.592 186.769 108.706 185.651 110.08 185.651C111.455 185.651 112.569 186.769 112.569 188.149C112.569 189.529 111.455 190.648 110.08 190.648Z" fill="#090814"/>
<path d="M74.4124 161.079C73.0381 161.079 71.924 159.96 71.924 158.58C71.924 157.2 73.0381 156.081 74.4124 156.081C75.7868 156.081 76.9009 157.2 76.9009 158.58C76.9009 159.96 75.7868 161.079 74.4124 161.079Z" fill="#090814"/>
<path d="M76.9009 192.314C75.5266 192.314 74.4124 191.195 74.4124 189.815C74.4124 188.435 75.5266 187.316 76.9009 187.316C78.2752 187.316 79.3893 188.435 79.3893 189.815C79.3893 191.195 78.2752 192.314 76.9009 192.314Z" fill="#090814"/>
<path d="M65.7028 131.093C64.3285 131.093 63.2144 129.975 63.2144 128.595C63.2144 127.215 64.3285 126.096 65.7028 126.096C67.0772 126.096 68.1913 127.215 68.1913 128.595C68.1913 129.975 67.0772 131.093 65.7028 131.093Z" fill="#090814"/>
<path d="M101.371 131.093C99.9964 131.093 98.8823 129.975 98.8823 128.595C98.8823 127.215 99.9964 126.096 101.371 126.096C102.745 126.096 103.859 127.215 103.859 128.595C103.859 129.975 102.745 131.093 101.371 131.093Z" fill="#090814"/>
<path d="M41.3068 179.082C44.7177 172.686 53.721 170.857 61.4164 174.996C65.8144 177.361 68.8249 181.164 69.9679 185.183L110.579 205.637L124.596 207.307L135.38 210.268L142.43 233.961L117.96 237.292L83.9515 227.297L92.1659 215.665L62.2481 199.656C58.2838 200.928 53.4626 200.519 49.0646 198.154C41.3691 194.016 37.896 185.477 41.3068 179.082Z" fill="#ED9DA0"/>
<path d="M9.29785 124.846C9.29785 124.846 -1.48546 135.258 0.173515 169.825L14.2748 208.556C14.2748 208.556 27.1318 222.716 27.5465 228.13C27.9613 233.544 38.7446 238.958 47.4542 238.958C56.1638 238.958 62.6862 240.802 62.6862 240.802L64.0439 242.706L71.1829 240.802L76.9009 239.375L79.3894 235.627L75.2419 233.544L74.4124 230.212C74.4124 230.212 89.7579 209.389 74.4124 196.062L56.9933 193.563L52.4311 196.479L51.6016 171.491L43.7215 153.166" fill="#D6D6E3"/>
<path d="M135.38 127.762C135.38 127.762 144.504 142.338 144.504 149.418C144.504 149.418 149.481 155.248 149.066 161.912C149.066 161.912 154.043 167.326 152.384 173.157C152.384 173.157 157.776 176.488 157.776 188.149C157.776 188.149 169.388 192.314 163.167 201.06L165 211.744C165 211.744 162.338 221.05 162.338 226.048C162.338 231.045 156.117 234.377 156.117 234.377L147.407 236.043C147.407 236.043 142.015 243.956 129.158 239.375C129.158 239.375 145.748 237.292 139.112 226.464C132.476 215.636 124.596 207.307 124.596 207.307C130.536 202.25 131.228 193.3 126.138 187.383L123.47 184.282L128.329 164.827" fill="#D6D6E3"/>
<path d="M61.7613 54.2326L57.4878 74.0645C57.4878 74.0645 55.1689 64.5235 52.803 67.0035C50.4372 69.4834 54.1287 59.4608 54.1287 59.4608L61.7613 54.2326Z" fill="#090814"/>
<path d="M107.489 64.716L107.334 43.9332L115.265 29.2674L112.361 20.1051C112.361 20.1051 110.702 14.2746 106.555 13.0252L101.163 6.36174C101.163 6.36174 98.6749 3.44647 95.7717 3.86294C92.8685 4.27941 81.2557 0.114741 81.2557 0.114741C81.2557 0.114741 76.0714 -0.50996 72.7535 1.15591L60.7259 2.82177L58.6522 3.6547C58.6522 3.6547 54.9195 9.48523 49.5279 11.1511C49.5279 11.1511 46.6247 12.817 45.7952 16.5652L40.4035 21.5628L39.5741 30.725C39.5741 30.725 39.1593 33.6403 39.9888 35.7226V40.7202L43.7215 46.5507C43.7215 46.5507 42.892 48.6331 48.6984 53.6307L50.3574 69.0399C50.3574 69.0399 50.5269 66.1624 52.1011 68.8506L53.6753 64.8753C53.6753 64.8753 61.1407 51.5483 73.9977 49.8825C86.8547 48.2166 101.009 48.7563 107.489 64.716Z" fill="#FFD2A1"/>
</g>
<defs>
<clipPath id="clip0_183_824">
<rect width="165" height="258" fill="white" transform="matrix(-1 0 0 1 165 0)"/>
</clipPath>
</defs>
</svg>
